<svg xmlns="http://www.w3.org/2000/svg" viewBox="0 0 24 24" aria-hidden="true">
  <path fill="currentColor" d="M17.05 20.28c-.98.95-2.05.88-3.08.4-1.09-.5-2.08-.96-3.24-1.44-1.56-.62-2.46-1.02-2.46-2.18 0-1.08.88-1.78 2.16-1.78 1.24 0 1.88.42 2.72 1.58l1.72-1.1c-.88-1.28-2.04-2-3.64-2-2.1 0-3.64 1.36-3.64 3.22 0 2.04 1.24 2.82 3.02 3.58 1.16.48 2.08.82 2.08 1.78 0 .98-.84 1.58-2.04 1.58-1.38 0-2.08-.58-2.92-1.68l-1.76 1.12c1.02 1.48 2.28 2.28 4.08 2.28 2.36 0 3.92-1.46 3.92-3.52 0-2.14-1.36-2.88-3.52-3.68z"/>
</svg>
